<svg id="icons" xmlns="http://www.w3.org/2000/svg" xmlns:xlink="http://www.w3.org/1999/xlink" width="96" height="96" viewBox="0 0 96 96"><defs><linearGradient id="linear-gradient" x1="25.95662" y1="3.1833" x2="74.42601" y2="101.72704" gradientUnits="userSpaceOnUse"><stop offset="0" stop-color="#fff" stop-opacity="0"/><stop offset="0.18607" stop-color="#fff" stop-opacity="0.01132"/><stop offset="0.31916" stop-color="#fff" stop-opacity="0.04767"/><stop offset="0.43577" stop-color="#fff" stop-opacity="0.10932"/><stop offset="0.54291" stop-color="#fff" stop-opacity="0.19638"/><stop offset="0.64364" stop-color="#fff" stop-opacity="0.30907"/><stop offset="0.73952" stop-color="#fff" stop-opacity="0.44748"/><stop offset="0.83163" stop-color="#fff" stop-opacity="0.61183"/><stop offset="0.91841" stop-color="#fff" stop-opacity="0.79708"/><stop offset="1" stop-color="#fff"/></linearGradient><linearGradient id="linear-gradient-2" x1="35.06886" y1="19.29571" x2="60.35517" y2="75.42575" gradientUnits="userSpaceOnUse"><stop offset="0" stop-color="#fff" stop-opacity="0"/><stop offset="1" stop-color="#fff"/></linearGradient><linearGradient id="linear-gradient-3" x1="51.24625" y1="52.14694" x2="0.30146" y2="-12.93282" xlink:href="#linear-gradient-2"/><clipPath id="clip-path"><circle cx="48" cy="48" r="20" fill="none"/></clipPath><linearGradient id="linear-gradient-4" x1="44.57097" y1="74.6453" x2="63.27613" y2="43.85053" xlink:href="#linear-gradient-2"/><linearGradient id="linear-gradient-5" x1="39.24117" y1="35.40003" x2="48.87064" y2="38.63754" xlink:href="#linear-gradient-2"/></defs><circle cx="47.99999" cy="47.99996" r="48" fill="url(#linear-gradient)"/><path d="M48,18C21.49036,18,0,48,0,48S21.49036,78,48,78c26.5097,0,48-30,48-30S74.5097,18,48,18Zm0,52A22,22,0,1,1,70,48,22,22,0,0,1,48,70Z" fill="url(#linear-gradient-2)"/><circle cx="48" cy="48" r="22" fill="url(#linear-gradient-3)"/><g clip-path="url(#clip-path)"><path d="M71,78H25V60l9.87868-9.87868a3,3,0,0,1,4.24264,0l3.60043,3.60043a3,3,0,0,0,4.38839-.15653l8.77972-10.13044a3,3,0,0,1,4.38839-.15653L71,54Z" fill="url(#linear-gradient-4)"/></g><circle cx="43.99997" cy="36.99998" r="5" fill="url(#linear-gradient-5)"/></svg>